<svg width="130" height="120" viewBox="0 0 130 120" fill="none" xmlns="http://www.w3.org/2000/svg">
<rect width="130" height="120" fill="#BBBBBB"/>
<g clip-path="url(#clip0_0_1)">
<rect width="130" height="120" fill="#170E1A"/>
<path d="M23.4028 58H22.9228C21.8561 58 20.9628 57.92 20.2428 57.76C19.5495 57.6 18.9361 57.28 18.4028 56.8C17.8961 56.2933 17.4961 55.7333 17.2028 55.12C16.9361 54.5067 16.7228 53.5867 16.5628 52.36C16.3228 50.52 16.2028 48.0533 16.2028 44.96C16.2028 41.84 16.2161 39.64 16.2428 38.36C16.2961 37.08 16.4028 35.84 16.5628 34.64C16.7228 33.4133 16.9361 32.5067 17.2028 31.92C17.4961 31.3067 17.8961 30.76 18.4028 30.28C18.9361 29.7733 19.5495 29.4533 20.2428 29.32C20.9628 29.16 21.8561 29.08 22.9228 29.08H23.4028V58ZM25.0028 29.08H30.0828C32.0295 29.08 33.4961 29.4133 34.4828 30.08C35.4961 30.7467 36.0028 31.9067 36.0028 33.56V37.16C36.0028 37.72 35.8161 38 35.4428 38H30.4028C30.0295 38 29.8028 37.9467 29.7228 37.84C29.6428 37.7333 29.6028 37.5067 29.6028 37.16V34.04C29.6028 33.6133 29.5361 33.32 29.4028 33.16C29.2961 32.9733 29.0028 32.88 28.5228 32.88H25.0028V29.08ZM30.4028 49.08H35.4428C35.8161 49.08 36.0028 49.36 36.0028 49.92V53.52C36.0028 55.1733 35.4961 56.3333 34.4828 57C33.4961 57.6667 32.0295 58 30.0828 58H25.0028V54.2H28.5228C29.0028 54.2 29.2961 54.12 29.4028 53.96C29.5361 53.7733 29.6028 53.4667 29.6028 53.04V49.92C29.6028 49.5733 29.6428 49.3467 29.7228 49.24C29.8028 49.1333 30.0295 49.08 30.4028 49.08ZM48.5778 29.08V53.04C48.5778 53.44 48.6711 53.7333 48.8578 53.92C49.0711 54.1067 49.5245 54.2 50.2178 54.2H53.1778V58H48.0978C47.0311 58 46.1378 57.92 45.4178 57.76C44.7245 57.6 44.1111 57.28 43.5778 56.8C43.0711 56.2933 42.6711 55.7333 42.3778 55.12C42.1111 54.5067 41.8978 53.5867 41.7378 52.36C41.4978 50.52 41.3778 48.0533 41.3778 44.96C41.3778 41.84 41.3911 39.64 41.4178 38.36C41.4711 37.08 41.5778 35.84 41.7378 34.64C41.8978 33.4133 42.1111 32.5067 42.3778 31.92C42.6711 31.3067 43.0711 30.76 43.5778 30.28C44.1111 29.7733 44.7245 29.4533 45.4178 29.32C46.1378 29.16 47.0311 29.08 48.0978 29.08H48.5778ZM50.1778 29.12H55.2578C56.3245 29.12 57.2045 29.2 57.8978 29.36C58.6178 29.52 59.2311 29.8533 59.7378 30.36C60.2711 30.84 60.6711 31.3867 60.9378 32C61.2311 32.6133 61.4578 33.5333 61.6178 34.76C61.8578 36.6 61.9778 39.08 61.9778 42.2C61.9778 45.2933 61.9511 47.48 61.8978 48.76C61.8711 50.04 61.7778 51.2933 61.6178 52.52C61.4578 53.72 61.2311 54.6267 60.9378 55.24C60.6711 55.8267 60.2711 56.3733 59.7378 56.88C59.2311 57.36 58.6178 57.68 57.8978 57.84C57.2045 57.9733 56.3245 58.04 55.2578 58.04H54.7778V34.08C54.7778 33.68 54.6711 33.3867 54.4578 33.2C54.2711 33.0133 53.8311 32.92 53.1378 32.92H50.1778V29.12ZM87.1228 43.48L87.1628 50.24C87.1628 53.4133 86.7628 55.5067 85.9628 56.52C85.1628 57.5067 83.7095 58 81.6028 58H75.7228V54.2H78.6828C79.3495 54.2 79.7895 54.12 80.0028 53.96C80.2161 53.8 80.3228 53.4933 80.3228 53.04V34.08C80.3228 33.6 80.2161 33.28 80.0028 33.12C79.7895 32.96 79.3495 32.88 78.6828 32.88H75.7228V29.08H82.0028C83.9495 29.08 85.2961 29.5333 86.0428 30.44C86.8161 31.32 87.2028 33.0533 87.2028 35.64L87.1228 43.48ZM74.5228 58.04H70.3228C69.4428 58.04 68.8561 57.8933 68.5628 57.6C68.2695 57.28 68.1228 56.6667 68.1228 55.76V31.36C68.1228 30.4533 68.2695 29.8533 68.5628 29.56C68.8561 29.24 69.4428 29.08 70.3228 29.08H74.5228V58.04ZM100.412 29.08V53.04C100.412 53.44 100.506 53.7333 100.692 53.92C100.906 54.1067 101.359 54.2 102.052 54.2H105.012V58H99.9322C98.8655 58 97.9722 57.92 97.2522 57.76C96.5589 57.6 95.9455 57.28 95.4122 56.8C94.9055 56.2933 94.5055 55.7333 94.2122 55.12C93.9455 54.5067 93.7322 53.5867 93.5722 52.36C93.3322 50.52 93.2122 48.0533 93.2122 44.96C93.2122 41.84 93.2255 39.64 93.2522 38.36C93.3055 37.08 93.4122 35.84 93.5722 34.64C93.7322 33.4133 93.9455 32.5067 94.2122 31.92C94.5055 31.3067 94.9055 30.76 95.4122 30.28C95.9455 29.7733 96.5589 29.4533 97.2522 29.32C97.9722 29.16 98.8655 29.08 99.9322 29.08H100.412ZM102.012 29.12H107.092C108.159 29.12 109.039 29.2 109.732 29.36C110.452 29.52 111.066 29.8533 111.572 30.36C112.106 30.84 112.506 31.3867 112.772 32C113.066 32.6133 113.292 33.5333 113.452 34.76C113.692 36.6 113.812 39.08 113.812 42.2C113.812 45.2933 113.786 47.48 113.732 48.76C113.706 50.04 113.612 51.2933 113.452 52.52C113.292 53.72 113.066 54.6267 112.772 55.24C112.506 55.8267 112.106 56.3733 111.572 56.88C111.066 57.36 110.452 57.68 109.732 57.84C109.039 57.9733 108.159 58.04 107.092 58.04H106.612V34.08C106.612 33.68 106.506 33.3867 106.292 33.2C106.106 33.0133 105.666 32.92 104.972 32.92H102.012V29.12ZM8.16656 64.08C9.07323 64.08 9.68656 64.2267 10.0066 64.52C10.3532 64.8133 10.5932 65.4267 10.7266 66.36L13.3666 87.64C13.4466 88.28 13.6199 88.6933 13.8866 88.88C14.1532 89.0667 14.5799 89.1733 15.1666 89.2L15.1266 93H13.3666C11.0199 93 9.47323 92.4267 8.72656 91.28C8.32656 90.6667 8.04656 90.0667 7.88656 89.48C7.72656 88.8667 7.5799 88.0133 7.44656 86.92L4.32656 64.08H8.16656ZM18.6066 93H16.1266L20.4866 66.36C20.5932 65.4533 20.8199 64.8533 21.1666 64.56C21.5132 64.24 22.1399 64.08 23.0466 64.08H26.8466L22.8466 87.72C22.6599 88.7333 22.4999 89.48 22.3666 89.96C22.2599 90.44 22.0599 90.96 21.7666 91.52C21.4732 92.08 21.0732 92.4667 20.5666 92.68C20.0599 92.8933 19.4066 93 18.6066 93ZM37.6588 93H33.4588C32.5521 93 31.9521 92.8533 31.6588 92.56C31.3921 92.2667 31.2588 91.6533 31.2588 90.72V66.36C31.2588 65.4267 31.3921 64.8133 31.6588 64.52C31.9521 64.2267 32.5521 64.08 33.4588 64.08H37.6588V93ZM50.0188 87.4V90.8C50.0188 91.7067 49.8721 92.3067 49.5788 92.6C49.2854 92.8667 48.6721 93 47.7388 93H39.2588V87.4H50.0188ZM47.6188 75.6V78C47.6188 78.96 47.5254 79.5733 47.3388 79.84C47.1521 80.08 46.6188 80.2 45.7388 80.2H39.2588V75.6H47.6188ZM49.6188 64.08V67.48C49.6188 68.3867 49.4721 68.9867 49.1788 69.28C48.8854 69.5467 48.2721 69.68 47.3388 69.68H39.2588V64.08H49.6188ZM61.6228 93H57.4228C56.5161 93 55.9161 92.8533 55.6228 92.56C55.3561 92.2667 55.2228 91.6533 55.2228 90.72V65.68C55.2228 65.2 55.3561 64.8133 55.6228 64.52C55.8895 64.2267 56.2361 64.08 56.6628 64.08H61.6228V93ZM63.2228 64.08H68.3028C69.8495 64.08 71.0628 64.2 71.9428 64.44C72.8495 64.68 73.5295 65.16 73.9828 65.88C74.4361 66.5733 74.7161 67.36 74.8228 68.24C74.9561 69.0933 75.0228 70.3067 75.0228 71.88C75.0228 73.4533 74.9561 74.6533 74.8228 75.48C74.7161 76.3067 74.4361 77.08 73.9828 77.8C73.5561 78.52 72.8761 79.0267 71.9428 79.32C71.0361 79.6133 69.8228 79.76 68.3028 79.76H63.2228V75.96H66.1828C66.8761 75.96 67.3161 75.8667 67.5028 75.68C67.7161 75.4933 67.8228 75.2 67.8228 74.8V69.08C67.8228 68.6533 67.7161 68.3467 67.5028 68.16C67.3161 67.9733 66.8761 67.88 66.1828 67.88H63.2228V64.08ZM67.0628 81H72.0228C72.8228 81 73.3961 81.2267 73.7428 81.68C74.0895 82.1067 74.2628 82.8133 74.2628 83.8V93H68.5028C68.0761 93 67.7295 92.8533 67.4628 92.56C67.1961 92.2667 67.0628 91.88 67.0628 91.4V81ZM87.3884 64.12V75.6C87.3884 76.0267 87.4818 76.3333 87.6684 76.52C87.8818 76.7067 88.3351 76.8 89.0284 76.8H91.9884V80.6H86.9084C85.3884 80.6 84.1618 80.44 83.2284 80.12C82.3218 79.8 81.6418 79.24 81.1884 78.44C80.7618 77.6133 80.4818 76.7333 80.3484 75.8C80.2418 74.8667 80.1884 73.6133 80.1884 72.04C80.1884 70.44 80.2418 69.2267 80.3484 68.4C80.4818 67.5733 80.7618 66.8 81.1884 66.08C81.6418 65.36 82.3218 64.8533 83.2284 64.56C84.1618 64.2667 85.3884 64.12 86.9084 64.12H87.3884ZM93.5884 76.8H94.0684C95.2151 76.8 96.0951 76.8267 96.7084 76.88C97.3484 76.9067 97.9618 77.0267 98.5484 77.24C99.1351 77.4267 99.5351 77.6533 99.7484 77.92C99.9884 78.1867 100.202 78.6533 100.388 79.32C100.602 79.96 100.722 80.6533 100.748 81.4C100.775 82.1467 100.788 83.2133 100.788 84.6C100.788 85.9867 100.775 87.0933 100.748 87.92C100.722 88.72 100.602 89.4933 100.388 90.24C100.202 90.96 99.9884 91.4667 99.7484 91.76C99.5351 92.0533 99.1351 92.32 98.5484 92.56C97.9618 92.7733 97.3484 92.9067 96.7084 92.96C96.0951 92.9867 95.2151 93 94.0684 93H93.5884V76.8ZM80.7484 84.08H85.7884C86.1618 84.08 86.3884 84.1333 86.4684 84.24C86.5484 84.3467 86.5884 84.5733 86.5884 84.92V88.04C86.5884 88.4667 86.6418 88.7733 86.7484 88.96C86.8818 89.12 87.1884 89.2 87.6684 89.2H91.9884V93H86.1084C84.1618 93 82.6818 92.6667 81.6684 92C80.6818 91.3333 80.1884 90.1733 80.1884 88.52V84.92C80.1884 84.36 80.3751 84.08 80.7484 84.08ZM88.9884 64.08H94.0684C96.0151 64.08 97.4818 64.4133 98.4684 65.08C99.4818 65.7467 99.9884 66.9067 99.9884 68.56V72.16C99.9884 72.72 99.8018 73 99.4284 73H94.3884C94.0151 73 93.7884 72.9467 93.7084 72.84C93.6284 72.7333 93.5884 72.5067 93.5884 72.16V69.04C93.5884 68.6133 93.5218 68.32 93.3884 68.16C93.2818 67.9733 92.9884 67.88 92.5084 67.88H88.9884V64.08ZM112.949 93H108.749C107.843 93 107.243 92.8533 106.949 92.56C106.683 92.2667 106.549 91.6533 106.549 90.72V66.36C106.549 65.4267 106.683 64.8133 106.949 64.52C107.243 64.2267 107.843 64.08 108.749 64.08H112.949V93ZM125.309 87.4V90.8C125.309 91.7067 125.163 92.3067 124.869 92.6C124.576 92.8667 123.963 93 123.029 93H114.549V87.4H125.309ZM122.909 75.6V78C122.909 78.96 122.816 79.5733 122.629 79.84C122.443 80.08 121.909 80.2 121.029 80.2H114.549V75.6H122.909ZM124.909 64.08V67.48C124.909 68.3867 124.763 68.9867 124.469 69.28C124.176 69.5467 123.563 69.68 122.629 69.68H114.549V64.08H124.909Z" fill="#A06BE9"/>
</g>
<defs>
<clipPath id="clip0_0_1">
<rect width="130" height="120" fill="white"/>
</clipPath>
</defs>
</svg>
